<svg width="360" height="90" viewBox="0 0 360 90" fill="none" xmlns="http://www.w3.org/2000/svg">
<path fill-rule="evenodd" clip-rule="evenodd" d="M360 52.548L351 52.548C343 52.548 326 52.548 309 43.79C291 35.032 274 17.516 257 12.6504C240 6.81175 223 13.6235 206 28.2202C189 41.8438 171 63.2522 154 74.9295C137 87.58 120 91.4724 103 89.5262C86 87.58 69 80.7682 51 66.1715C34 52.548 17 31.1395 8.99999 21.4084L-6.93226e-06 10.7042L-7.86805e-06 -1.023e-06L8.99999 -1.8098e-06C17 -2.50919e-06 34 -3.99537e-06 51 -5.48156e-06C69 -7.05517e-06 86 -8.54136e-06 103 -1.00275e-05C120 -1.15137e-05 137 -1.29999e-05 154 -1.44861e-05C171 -1.59723e-05 189 -1.75459e-05 206 -1.90321e-05C223 -2.05183e-05 240 -2.20045e-05 257 -2.34907e-05C274 -2.49768e-05 291 -2.6463e-05 309 -2.80366e-05C326 -2.95228e-05 343 -3.1009e-05 351 -3.17084e-05L360 -3.24952e-05L360 52.548Z" fill="url(#paint0_linear_198_2757)"/>
<defs>
<linearGradient id="paint0_linear_198_2757" x1="180" y1="90" x2="159.017" y2="-26.4692" gradientUnits="userSpaceOnUse">
<stop stop-color="#0099FF" stop-opacity="0"/>
<stop offset="0.386357" stop-color="#053F5C"/>
</linearGradient>
</defs>
</svg>
